<svg xmlns="http://www.w3.org/2000/svg" width="36" height="44" viewBox="0 0 36 44">
    <g fill="none" fill-rule="evenodd">
        <path fill="#444" d="M30.796 30.64C34.01 27.389 36 22.924 36 18c0-9.925-8.075-18-18-18S0 8.075 0 18c0 4.925 1.99 9.39 5.207 12.643C2.486 32.096 1 33.963 1 36c0 5.008 8.644 8 17 8 8.357 0 17-2.992 17-8 0-2.04-1.484-3.91-4.204-5.36"/>
        <path fill="#EBEFF2" d="M18 2c8.822 0 16 7.178 16 16 0 4.803-2.138 9.107-5.5 12.043a.976.976 0 0 0-.289.263A15.929 15.929 0 0 1 18 34a15.927 15.927 0 0 1-10.218-3.7.956.956 0 0 0-.268-.244C4.144 27.12 2 22.81 2 18 2 9.178 9.178 2 18 2"/>
        <path fill="#FFAB91" d="M18 42c-8.585 0-15-3.168-15-6 0-1.357 1.422-2.797 3.816-3.922A17.899 17.899 0 0 0 18 36c4.228 0 8.111-1.475 11.187-3.924C31.579 33.199 33 34.639 33 36c0 2.832-6.415 6-15 6"/>
        <path fill="#444" d="M18 28c5.514 0 10-4.486 10-10S23.514 8 18 8 8 12.486 8 18s4.486 10 10 10"/>
        <path fill="#C5C9E5" d="M18 10c4.412 0 8 3.588 8 8s-3.588 8-8 8-8-3.588-8-8 3.588-8 8-8"/>
        <path fill="#444" d="M22 18c0-2.205-1.795-4-4-4s-4 1.795-4 4 1.795 4 4 4 4-1.795 4-4z"/>
        <path fill="#FFF" d="M15.5 13c1.378 0 2.5 1.123 2.5 2.5 0 1.378-1.122 2.5-2.5 2.5a2.504 2.504 0 0 1-2.5-2.5c0-1.377 1.123-2.5 2.5-2.5"/>
    </g>
</svg>
