<svg xmlns="http://www.w3.org/2000/svg" width="44" height="44" viewBox="0 0 44 44">
    <g fill="none" fill-rule="evenodd">
        <path fill="#F44336" d="M1 42h26.072C34.382 42 44 32 44 32v3s-9.887 9-17.331 9H1v-2z"/>
        <path fill="#444" d="M43.698 18.482l-18.2-18.2a1.03 1.03 0 0 0-1.414 0c-2.917 2.917-4.367 6.41-4.357 9.899-1.363.979-8.352 5.759-16.047 6.614a.998.998 0 0 0-.833 1.325C6.974 29.834.184 42.38.115 42.505c-.01.02-.01.04-.018.058a1.023 1.023 0 0 0-.08.255c-.007.04-.014.078-.016.12a.967.967 0 0 0 .023.257c.008.04.016.078.029.116.015.041.035.08.054.118.01.025.012.05.025.073.015.025.036.043.053.066a.7.7 0 0 0 .054.068c.01.013.02.028.03.038.007.008.009.017.015.023l.006.004a.985.985 0 0 0 .368.223c.029.01.055.026.084.033.082.021.166.032.248.032h.002c.108 0 .216-.024.322-.06l.01-.005a.711.711 0 0 0 .082-.034c.03-.014.063-.023.093-.04 0-.002.003-.002.004-.002.114-.068 11.572-6.767 24.386-2.706a1 1 0 0 0 1.296-.843c.829-7.467 5.385-14.31 6.536-15.938.04.002.08.008.12.008h.002c3.52 0 6.929-1.546 9.855-4.473a.999.999 0 0 0 0-1.413"/>
        <path fill="#EBEFF2" d="M25.356 38.9c-7.983-2.19-15.244-.647-19.837.975l8.779-8.78a.954.954 0 0 0 .164-.248 3.764 3.764 0 0 0 4.616-.572 3.804 3.804 0 0 0 0-5.374c-1.434-1.436-3.938-1.436-5.374 0-1.25 1.251-1.432 3.16-.572 4.615-.087.046-.175.092-.248.165l-8.905 8.905c1.68-4.755 3.398-12.35 1.132-19.968 6.604-1.052 12.389-4.516 14.84-6.158.5 2.66 1.857 5.241 4.092 7.475 2.236 2.236 4.765 3.65 7.416 4.184-1.67 2.508-5.07 8.247-6.103 14.78"/>
        <path fill="#FFF" d="M15.118 26.315c.34-.34.792-.527 1.273-.527a1.802 1.802 0 0 1 1.273 3.072c-.68.68-1.866.682-2.546.001a1.804 1.804 0 0 1 0-2.546"/>
        <path fill="#C5C9E5" d="M33.841 22.368c-2.969 0-5.869-1.33-8.385-3.846-4.78-4.781-4.993-11.144-.643-16.096l16.742 16.742c-2.364 2.097-5.014 3.2-7.714 3.2"/>
    </g>
</svg>
