<svg xmlns="http://www.w3.org/2000/svg" width="32" height="32" viewBox="0 0 32 32">
    <g fill="none" fill-rule="evenodd">
        <path fill="#444" d="M4 5.991C4 4.891 4.9 4 5.991 4H30.01C31.109 4 32 4.9 32 5.991V30.01c0 1.1-.9 1.991-1.991 1.991H5.99C4.891 32 4 31.1 4 30.009V5.99z"/>
        <path fill="#FAFAFA" d="M6 6h24v24H6z"/>
        <path fill="#444" d="M0 1.991C0 .891.9 0 1.991 0H26.01C27.109 0 28 .9 28 1.991V26.01c0 1.1-.9 1.991-1.991 1.991H1.99C.891 28 0 27.1 0 26.009V1.99z"/>
        <path fill="#FAFAFA" d="M2 2h24v24H2z"/>
        <path fill="#2196F3" d="M22.182 17.812h-8.916a43.76 43.76 0 0 0 .769-2.938c.625-.426 1.24-.775 1.766-.984.435-.171.654-.185.736-.185.027 0 .039.003.04 0 .016.04.176.539-.741 2.371-.205.411-.165.713.121.899.446.288.654.036 1.428-.908.523-.639 1.399-1.708 1.833-2.002.462-.312.728-.323.785-.277.105.083.213.59-.15 1.561a.547.547 0 0 0 1.022.383c.485-1.3.413-2.32-.197-2.801-.3-.235-.964-.519-2.07.23-.262.176-.572.478-.92.86.03-.454-.071-.798-.303-1.05-.593-.647-1.642-.232-1.985-.095a8.167 8.167 0 0 0-1.036.512l.251-1.176.098-.46c.902-.474 1.668-1.01 2.047-1.516 1.566-2.088 1.385-3.228 1.139-3.721a1.25 1.25 0 0 0-1.142-.697c-.76 0-1.516.567-1.972 1.479-.357.714-.679 2.076-1.03 3.709-1.282.606-2.779 1.08-3.573 1.08a.546.546 0 0 0 0 1.091c.806 0 2.07-.344 3.292-.848-.128.603-.266 1.25-.416 1.91-1.46 1.053-2.937 2.445-3.576 3.573H5.455a.364.364 0 0 0 0 .727h3.66c-.439.961-1.042 2.63-.423 3.48.17.233.48.481 1.026.481.118 0 .248-.011.389-.037 1.29-.238 2.204-1.814 2.924-3.925h9.15a.364.364 0 0 0 0-.726zM15.76 7.785c.3-.601.727-.875.995-.875.11 0 .143.046.167.094.134.267.065 1.11-1.036 2.578-.174.231-.478.481-.862.73.253-1.12.498-2.05.736-2.527zm-3.106 8.14c-.167.651-.344 1.288-.534 1.887h-1.33c.453-.592 1.122-1.261 1.864-1.887zM9.91 21.391c-.212.039-.317.012-.335-.014-.2-.275.09-1.555.754-2.838h1.547c-.555 1.556-1.205 2.712-1.966 2.852z"/>
        <path fill="#2196F3" d="M5.197 15.893a.365.365 0 0 0 .515 0l.834-.834.833.834a.363.363 0 1 0 .515-.514l-.834-.834.833-.834a.364.364 0 0 0-.514-.514l-.833.834-.834-.834a.364.364 0 0 0-.514.514l.833.834-.833.833a.364.364 0 0 0 0 .515z"/>
    </g>
</svg>
