<svg xmlns="http://www.w3.org/2000/svg" width="32" height="44" viewBox="0 0 32 44">
    <g fill="none" fill-rule="evenodd">
        <path fill="#444" d="M0 2.005C0 .898.89 0 2.002 0h27.996C31.104 0 32 .899 32 2.005v39.99C32 43.102 31.11 44 29.998 44H2.002A2.004 2.004 0 0 1 0 41.995V2.005z"/>
        <path fill="#CFD8DC" d="M2 2h28v40H2z"/>
        <path fill="#444" d="M14 3h4v1h-4zM4 5h24v29H4z"/>
        <path fill="#FFF" d="M6 7h20v25H6z"/>
        <path fill="#F44336" d="M9 12h5v5H9v-5zm1 1h3v3h-3v-3zm1 1h1v1h-1v-1zm-2 7h5v5H9v-5zm0-3h1v2H9v-2zm1 0h1v1h-1v-1zm1 1h1v1h-1v-1zm2-1h1v1h-1v-1zm2-4h1v1h-1v-1zm1-2h1v1h-1v-1zm1 7h1v1h-1v-1zm3-1h1v1h-1v-1zm2 0h1v1h-1v-1zm-1 1h1v1h-1v-1zm-3 2h1v1h-1v-1zm1 1h1v1h-1v-1zm-1 1h1v1h-1v-1zm1 1h1v1h-1v-1zm-1 1h1v1h-1v-1zm-1 0h1v1h-1v-1zm-2 0h1v1h-1v-1zm7-2h1v1h-1v-1zm-1-1h1v1h-1v-1zm1 3h1v1h-1v-1zm-10-7h1v2h-1v-2zm2 0h1v2h-1v-2zm1-2h1v2h-1v-2zm1 1h1v2h-1v-2zm-1 2h1v2h-1v-2zm1 1h1v2h-1v-2zm-1 2h1v2h-1v-2zm1 1h1v2h-1v-2zm1-1h1v2h-1v-2zm1-4h1v2h-1v-2zm1 1h1v2h-1v-2zm1 1h1v2h-1v-2zm2 0h1v2h-1v-2zm-2 3h1v3h-1v-3zm-4-9h1v2h-1v-2zm-1-2h1v2h-1v-2zm-5 10h3v3h-3v-3zm1 1h1v1h-1v-1zm7-11h5v5h-5v-5zm1 1h3v3h-3v-3zm1 1h1v1h-1v-1z"/>
        <circle cx="16" cy="38" r="3" fill="#444"/>
        <circle cx="16" cy="38" r="1" fill="#FFF"/>
    </g>
</svg>
