<svg xmlns="http://www.w3.org/2000/svg" width="34" height="40" viewBox="0 0 34 40">
    <g fill="none" fill-rule="evenodd">
        <path fill="#444" d="M13 6v28h-.999A2.002 2.002 0 0 0 10 35.998v2.004c0 1.104.897 1.998 2.006 1.998h9.988A2.004 2.004 0 0 0 24 38.002v-2.004C24 34.894 23.1 34 21.999 34H21V6h7v2.995c0 1.107.898 2.005 1.998 2.005h2.004A2 2 0 0 0 34 9.002V2.005A2 2 0 0 0 32 0H2a2 2 0 0 0-2 2.005v6.997A2 2 0 0 0 1.998 11h2.004A1.999 1.999 0 0 0 6 8.995V6h7z"/>
        <path fill="#C8E7C9" d="M19 4h11v5h2V2H2v7h2V4h11v32h-3v2h10v-2h-3z"/>
    </g>
</svg>
