<svg xmlns="http://www.w3.org/2000/svg" xmlns:xlink="http://www.w3.org/1999/xlink" width="45" height="44" viewBox="0 0 45 44">
    <defs>
        <path id="a" d="M22 17H9.48l-3.699 4.625A1 1 0 0 1 4 21v-4H2c-1.103 0-2-.897-2-2V2C0 .897.897 0 2 0h20c1.103 0 2 .897 2 2v13c0 1.103-.897 2-2 2z"/>
        <mask id="b" width="26" height="24" x="-1" y="-1">
            <path fill="#fff" d="M-1-1h26v24H-1z"/>
            <use xlink:href="#a"/>
        </mask>
    </defs>
    <g fill="none" fill-rule="evenodd" transform="translate(1)">
        <path fill="#444" d="M12 2.005C12 .898 12.89 0 14.002 0h27.996C43.104 0 44 .899 44 2.005v39.99C44 43.102 43.11 44 41.998 44H14.002A2.004 2.004 0 0 1 12 41.995V2.005z"/>
        <path fill="#CFD8DC" d="M14 2h28v40H14z"/>
        <path fill="#444" d="M26 3h4v1h-4zM16 5h24v29H16z"/>
        <path fill="#FFF" d="M18 7h20v25H18z"/>
        <path fill="#F44336" d="M29.142 13.084c.06-.287 1.464-1.713 4.571-1.875-3.28-.694-6.063.447-5.714 1.875-.347 3.423 5.911 5.331 5.714 5.625.197 4.646-9.54 2.078-13.713 7.5 4.695-4.28 15.78-.868 15.998-7.5.12-2.233-6.766-3.344-6.856-5.625"/>
        <circle cx="28" cy="38" r="3" fill="#444"/>
        <circle cx="28" cy="38" r="1" fill="#FFF"/>
        <g transform="translate(0 11)">
            <use fill="#444" xlink:href="#a"/>
            <use stroke="#FFF" stroke-width="2" mask="url(#b)" xlink:href="#a"/>
        </g>
        <path fill="#E1F5FE" d="M22 13H2v13h3a1 1 0 0 1 1 1v2.149l2.219-2.773c.012-.015.029-.021.041-.035.048-.053.104-.093.161-.135.05-.036.095-.074.149-.1.055-.027.114-.038.174-.054.068-.019.133-.038.203-.041C8.965 26.01 8.981 26 9 26h13V13z"/>
        <path fill="#444" d="M6 16h12v1H6zM6 19h12v1H6zM6 22h12v1H6z"/>
    </g>
</svg>
