<svg xmlns="http://www.w3.org/2000/svg" xmlns:xlink="http://www.w3.org/1999/xlink" width="44" height="42" viewBox="0 0 44 42">
    <defs>
        <path id="a" d="M33 34H9.35C4.193 34 0 29.649 0 24.297c0-3.922 2.257-7.414 5.69-8.921-.046-.441-.068-.87-.068-1.296C5.622 6.316 11.709 0 19.189 0c5.518 0 10.476 3.49 12.552 8.758h.097C38.544 8.757 44 14.418 44 21.378 44 27.651 40.221 34 33 34z"/>
        <mask id="b" width="44" height="34" x="0" y="0" fill="#fff">
            <use xlink:href="#a"/>
        </mask>
    </defs>
    <g fill="none" fill-rule="evenodd">
        <use fill="#E1F5FE" stroke="#444" stroke-width="4" mask="url(#b)" xlink:href="#a"/>
        <path fill="#E1F5FE" d="M15 32h14v2H15z"/>
        <path fill="#444" d="M21 21.414l-4.293 4.294a1 1 0 0 1-1.414-1.414l6-6.001a1 1 0 0 1 1.414 0l6 6a1 1 0 0 1-1.414 1.415L23 21.414V41a1 1 0 0 1-2 0V21.414z"/>
    </g>
</svg>
